<?xml version="1.0" encoding="utf-8"?>
<!-- Generator: Adobe Illustrator 24.1.0, SVG Export Plug-In . SVG Version: 6.00 Build 0)  -->
<svg version="1.1" id="Layer_1" xmlns="http://www.w3.org/2000/svg" xmlns:xlink="http://www.w3.org/1999/xlink" x="0px" y="0px"
	 viewBox="0 0 247 45.5" style="enable-background:new 0 0 247 45.5;" xml:space="preserve">
<style type="text/css">
	.st0{enable-background:new    ;}
	.st1{fill:#369BC2;}
	.st2{fill:#343434;}
	.st3{fill:#666666;}
</style>
<g id="Layer_2_1_">
	<g id="Layer_1-2">
		<g class="st0">
			<path class="st1" d="M78.6,9.4c-2.3,0-3.9,0.7-4.9,2.1s-1.5,3.7-1.5,7c0,2.8,0.5,4.8,1.4,5.9c1,1.1,2.6,1.7,5,1.7h9v4.5h-9.3
				c-2,0-3.7-0.2-4.8-0.5c-1.2-0.3-2.3-0.9-3.3-1.7c-1.3-1-2.3-2.4-3-4.1c-0.7-1.7-1-3.7-1-6c0-4.5,1-7.9,3-10
				c2-2.2,5.1-3.2,9.3-3.2h9.1v4.4H78.6z"/>
			<path class="st1" d="M92.1,18.8c0-3.3,0.2-5.6,0.6-7.2c0.4-1.5,1.1-2.8,2.1-3.7c1-1,2.3-1.7,4-2.2c1.7-0.5,3.7-0.7,6.2-0.7h8.4
				v4.5h-8.8c-2.4,0-4.1,0.5-5.2,1.5c-1.1,1-1.6,2.6-1.7,4.8h15.7v4.4H97.6v10.5h-5.5V18.8z"/>
		</g>
		<g class="st0">
			<path class="st2" d="M128.8,9.4c-2.3,0-3.9,0.7-4.9,2.1s-1.5,3.7-1.5,7c0,2.8,0.5,4.8,1.4,5.9c1,1.1,2.6,1.7,5,1.7h9v4.5h-9.3
				c-2,0-3.7-0.2-4.8-0.5c-1.2-0.3-2.3-0.9-3.3-1.7c-1.3-1-2.3-2.4-3-4.1c-0.7-1.7-1-3.7-1-6c0-4.5,1-7.9,3-10
				c2-2.2,5.1-3.2,9.3-3.2h9.1v4.4H128.8z"/>
			<path class="st2" d="M150,5h5.8L167,30.6h-6.1l-2.4-6.1h-11.3l-2.3,6.1H139L150,5z M152.7,10.1l-3.8,9.8h7.8L152.7,10.1z"/>
			<path class="st2" d="M191.6,9.6H178c-1.5,0-2.5,0.3-3.2,0.8c-0.7,0.5-1,1.4-1,2.5c0,0.9,0.3,1.6,0.9,2.1c0.6,0.5,1.4,0.7,2.6,0.7
				h7.3c3,0,5.1,0.6,6.4,1.7c1.3,1.1,1.9,3,1.9,5.6c0,2.6-0.7,4.6-2.2,5.8c-1.5,1.2-3.8,1.9-6.9,1.9h-14.6V26h13.7
				c1.6,0,2.7-0.2,3.3-0.7c0.6-0.4,1-1.2,1-2.2c0-1.1-0.3-1.8-0.9-2.3c-0.6-0.5-1.6-0.7-3-0.7h-6.5c-3,0-5.2-0.6-6.6-1.8
				s-2.1-3-2.1-5.6c0-2.7,0.7-4.7,2.2-5.9c1.5-1.3,3.8-1.9,7-1.9h14.4V9.6z"/>
			<path class="st2" d="M203.4,9.5H195V5.1h22.6v4.5h-8.5v21.1h-5.7V9.5z"/>
			<path class="st2" d="M243,9.6h-13.6c-1.5,0-2.5,0.3-3.2,0.8c-0.7,0.5-1,1.4-1,2.5c0,0.9,0.3,1.6,0.9,2.1c0.6,0.5,1.4,0.7,2.6,0.7
				h7.3c3,0,5.1,0.6,6.4,1.7c1.3,1.1,1.9,3,1.9,5.6c0,2.6-0.7,4.6-2.2,5.8c-1.5,1.2-3.8,1.9-6.9,1.9h-14.6V26h13.7
				c1.6,0,2.7-0.2,3.3-0.7c0.6-0.4,1-1.2,1-2.2c0-1.1-0.3-1.8-0.9-2.3c-0.6-0.5-1.6-0.7-3-0.7h-6.5c-3,0-5.2-0.6-6.6-1.8
				s-2.1-3-2.1-5.6c0-2.7,0.7-4.7,2.2-5.9c1.5-1.3,3.8-1.9,7-1.9H243V9.6z"/>
		</g>
		<path class="st2" d="M7.6,0.2h39.2c4.2,0,7.6,3.4,7.6,7.6v23.5c0,4.2-3.4,7.6-7.6,7.6H7.6c-4.2,0-7.6-3.4-7.6-7.6V7.7
			C0,3.5,3.4,0.2,7.6,0.2z"/>
		<polygon class="st1" points="19.9,8.1 19.9,30.9 38.9,19.3 		"/>
		<g class="st0">
			<path class="st3" d="M158.9,37.1c0.7,0,1.3,0.2,1.7,0.7c0.4,0.5,0.6,1.2,0.6,2.1s-0.2,1.6-0.6,2.1c-0.4,0.5-1,0.8-1.7,0.8
				c-0.4,0-0.7-0.1-1-0.2c-0.3-0.1-0.6-0.3-0.8-0.6h-0.1l-0.2,0.7h-0.6v-7.9h0.9v1.9c0,0.4,0,0.8,0,1.2h0
				C157.5,37.4,158.1,37.1,158.9,37.1z M158.8,37.8c-0.6,0-1,0.2-1.3,0.5c-0.3,0.3-0.4,0.9-0.4,1.7c0,0.8,0.1,1.3,0.4,1.7
				c0.3,0.3,0.7,0.5,1.3,0.5c0.5,0,0.9-0.2,1.2-0.6c0.3-0.4,0.4-0.9,0.4-1.6c0-0.7-0.1-1.3-0.4-1.6C159.7,38,159.3,37.8,158.8,37.8z
				"/>
			<path class="st3" d="M161.9,37.2h0.9l1.2,3.2c0.3,0.7,0.4,1.2,0.5,1.6h0c0-0.2,0.1-0.5,0.3-0.9s0.6-1.7,1.4-3.8h0.9l-2.4,6.3
				c-0.2,0.6-0.5,1.1-0.8,1.3c-0.3,0.3-0.7,0.4-1.2,0.4c-0.3,0-0.5,0-0.8-0.1v-0.7c0.2,0,0.4,0.1,0.6,0.1c0.6,0,1-0.3,1.3-1l0.3-0.8
				L161.9,37.2z"/>
			<path class="st3" d="M177.5,39c0,1.2-0.3,2.1-0.9,2.8c-0.6,0.7-1.5,1-2.6,1c-1.1,0-2-0.3-2.6-1c-0.6-0.7-0.9-1.6-0.9-2.8
				c0-1.2,0.3-2.1,0.9-2.8c0.6-0.7,1.5-1,2.6-1c1.1,0,1.9,0.3,2.5,1S177.5,37.8,177.5,39z M171.5,39c0,1,0.2,1.8,0.7,2.3
				c0.4,0.5,1.1,0.8,1.9,0.8c0.8,0,1.5-0.3,1.9-0.8c0.4-0.5,0.6-1.3,0.6-2.3c0-1-0.2-1.8-0.6-2.3c-0.4-0.5-1.1-0.8-1.9-0.8
				c-0.8,0-1.5,0.3-1.9,0.8C171.7,37.3,171.5,38,171.5,39z"/>
			<path class="st3" d="M181.7,37.1c0.3,0,0.5,0,0.7,0.1l-0.1,0.8c-0.2-0.1-0.4-0.1-0.6-0.1c-0.5,0-0.9,0.2-1.2,0.5
				c-0.3,0.4-0.5,0.8-0.5,1.4v3h-0.9v-5.6h0.7l0.1,1h0c0.2-0.4,0.5-0.6,0.8-0.8C181,37.2,181.3,37.1,181.7,37.1z"/>
			<path class="st3" d="M185.3,42.1c0.2,0,0.3,0,0.4,0c0.1,0,0.3,0,0.3-0.1v0.6c-0.1,0-0.2,0.1-0.4,0.1s-0.3,0-0.5,0
				c-1.1,0-1.6-0.6-1.6-1.7v-3.3h-0.8v-0.4l0.8-0.3l0.4-1.2h0.5v1.3h1.6v0.7h-1.6v3.3c0,0.3,0.1,0.6,0.2,0.8S185,42.1,185.3,42.1z"
				/>
			<path class="st3" d="M188,37.2v3.6c0,0.5,0.1,0.8,0.3,1c0.2,0.2,0.5,0.3,1,0.3c0.6,0,1-0.2,1.3-0.5c0.3-0.3,0.4-0.8,0.4-1.6v-2.9
				h0.9v5.6h-0.7L191,42h0c-0.2,0.3-0.4,0.5-0.7,0.6c-0.3,0.1-0.7,0.2-1.1,0.2c-0.7,0-1.2-0.2-1.5-0.5c-0.3-0.3-0.5-0.8-0.5-1.5
				v-3.6H188z"/>
			<path class="st3" d="M197.3,41.2c0,0.5-0.2,0.9-0.6,1.2c-0.4,0.3-0.9,0.4-1.7,0.4c-0.8,0-1.3-0.1-1.8-0.4v-0.8
				c0.3,0.1,0.6,0.2,0.9,0.3c0.3,0.1,0.6,0.1,0.9,0.1c0.4,0,0.8-0.1,1-0.2s0.4-0.4,0.4-0.6c0-0.2-0.1-0.4-0.3-0.6
				c-0.2-0.2-0.6-0.3-1.1-0.5c-0.5-0.2-0.9-0.4-1.1-0.5c-0.2-0.1-0.4-0.3-0.5-0.5s-0.2-0.4-0.2-0.7c0-0.5,0.2-0.8,0.6-1.1
				s0.9-0.4,1.5-0.4c0.6,0,1.2,0.1,1.8,0.4l-0.3,0.7c-0.6-0.2-1.1-0.3-1.5-0.3c-0.4,0-0.7,0.1-0.9,0.2s-0.3,0.3-0.3,0.5
				c0,0.1,0,0.3,0.1,0.4c0.1,0.1,0.2,0.2,0.4,0.3c0.2,0.1,0.5,0.2,1,0.4c0.7,0.2,1.1,0.5,1.4,0.7C197.2,40.5,197.3,40.8,197.3,41.2z
				"/>
			<path class="st3" d="M205.9,40.8c0,0.7-0.2,1.2-0.7,1.5c-0.5,0.4-1.1,0.5-2,0.5c-0.9,0-1.6-0.1-2.1-0.3v-0.8
				c0.3,0.1,0.6,0.2,1,0.3s0.7,0.1,1.1,0.1c0.6,0,1-0.1,1.3-0.3c0.3-0.2,0.4-0.5,0.4-0.9c0-0.3-0.1-0.5-0.2-0.6
				c-0.1-0.2-0.3-0.3-0.5-0.5c-0.2-0.1-0.6-0.3-1.1-0.5c-0.7-0.2-1.2-0.5-1.5-0.9s-0.5-0.8-0.5-1.3c0-0.6,0.2-1,0.7-1.4
				s1-0.5,1.7-0.5c0.8,0,1.4,0.1,2.1,0.4l-0.3,0.8c-0.6-0.3-1.2-0.4-1.8-0.4c-0.5,0-0.8,0.1-1.1,0.3c-0.3,0.2-0.4,0.5-0.4,0.8
				c0,0.3,0,0.5,0.1,0.6c0.1,0.2,0.3,0.3,0.5,0.5c0.2,0.1,0.6,0.3,1.1,0.5c0.8,0.3,1.3,0.6,1.6,0.9
				C205.7,39.8,205.9,40.3,205.9,40.8z"/>
			<path class="st3" d="M212.2,39.9c0,0.9-0.2,1.6-0.7,2.1c-0.5,0.5-1.1,0.8-1.9,0.8c-0.5,0-1-0.1-1.3-0.4c-0.4-0.2-0.7-0.6-0.9-1
				c-0.2-0.4-0.3-0.9-0.3-1.5c0-0.9,0.2-1.6,0.7-2.1c0.5-0.5,1.1-0.8,1.9-0.8c0.8,0,1.4,0.3,1.9,0.8
				C211.9,38.4,212.2,39.1,212.2,39.9z M207.8,39.9c0,0.7,0.1,1.2,0.4,1.6s0.7,0.6,1.3,0.6c0.6,0,1-0.2,1.3-0.6
				c0.3-0.4,0.4-0.9,0.4-1.6c0-0.7-0.1-1.2-0.4-1.6c-0.3-0.4-0.7-0.5-1.3-0.5c-0.6,0-1,0.2-1.3,0.5C208,38.7,207.8,39.2,207.8,39.9z
				"/>
			<path class="st3" d="M214.5,42.7h-0.9v-7.9h0.9V42.7z"/>
			<path class="st3" d="M217.1,37.2v3.6c0,0.5,0.1,0.8,0.3,1c0.2,0.2,0.5,0.3,1,0.3c0.6,0,1-0.2,1.3-0.5c0.3-0.3,0.4-0.8,0.4-1.6
				v-2.9h0.9v5.6h-0.7l-0.1-0.7h0c-0.2,0.3-0.4,0.5-0.7,0.6c-0.3,0.1-0.7,0.2-1.1,0.2c-0.7,0-1.2-0.2-1.5-0.5
				c-0.3-0.3-0.5-0.8-0.5-1.5v-3.6H217.1z"/>
			<path class="st3" d="M224.7,42.1c0.2,0,0.3,0,0.4,0c0.1,0,0.3,0,0.3-0.1v0.6c-0.1,0-0.2,0.1-0.4,0.1s-0.3,0-0.5,0
				c-1.1,0-1.6-0.6-1.6-1.7v-3.3h-0.8v-0.4l0.8-0.3l0.4-1.2h0.5v1.3h1.6v0.7h-1.6v3.3c0,0.3,0.1,0.6,0.2,0.8S224.4,42.1,224.7,42.1z
				"/>
			<path class="st3" d="M226.5,35.7c0-0.2,0-0.3,0.1-0.4c0.1-0.1,0.2-0.1,0.4-0.1c0.1,0,0.3,0,0.4,0.1c0.1,0.1,0.1,0.2,0.1,0.4
				s0,0.3-0.1,0.4c-0.1,0.1-0.2,0.1-0.4,0.1c-0.1,0-0.3,0-0.4-0.1S226.5,35.9,226.5,35.7z M227.4,42.7h-0.9v-5.6h0.9V42.7z"/>
			<path class="st3" d="M234.1,39.9c0,0.9-0.2,1.6-0.7,2.1c-0.5,0.5-1.1,0.8-1.9,0.8c-0.5,0-1-0.1-1.3-0.4c-0.4-0.2-0.7-0.6-0.9-1
				c-0.2-0.4-0.3-0.9-0.3-1.5c0-0.9,0.2-1.6,0.7-2.1c0.5-0.5,1.1-0.8,1.9-0.8c0.8,0,1.4,0.3,1.9,0.8
				C233.9,38.4,234.1,39.1,234.1,39.9z M229.8,39.9c0,0.7,0.1,1.2,0.4,1.6s0.7,0.6,1.3,0.6c0.6,0,1-0.2,1.3-0.6
				c0.3-0.4,0.4-0.9,0.4-1.6c0-0.7-0.1-1.2-0.4-1.6c-0.3-0.4-0.7-0.5-1.3-0.5c-0.6,0-1,0.2-1.3,0.5C230,38.7,229.8,39.2,229.8,39.9z
				"/>
			<path class="st3" d="M239.5,42.7v-3.6c0-0.5-0.1-0.8-0.3-1s-0.5-0.3-1-0.3c-0.6,0-1,0.2-1.3,0.5s-0.4,0.8-0.4,1.6v2.9h-0.9v-5.6
				h0.7l0.1,0.8h0c0.2-0.3,0.4-0.5,0.7-0.6c0.3-0.2,0.7-0.2,1.1-0.2c0.7,0,1.2,0.2,1.5,0.5c0.3,0.3,0.5,0.8,0.5,1.5v3.6H239.5z"/>
			<path class="st3" d="M245.8,41.2c0,0.5-0.2,0.9-0.6,1.2c-0.4,0.3-0.9,0.4-1.7,0.4c-0.8,0-1.3-0.1-1.8-0.4v-0.8
				c0.3,0.1,0.6,0.2,0.9,0.3c0.3,0.1,0.6,0.1,0.9,0.1c0.4,0,0.8-0.1,1-0.2s0.4-0.4,0.4-0.6c0-0.2-0.1-0.4-0.3-0.6
				c-0.2-0.2-0.6-0.3-1.1-0.5c-0.5-0.2-0.9-0.4-1.1-0.5c-0.2-0.1-0.4-0.3-0.5-0.5s-0.2-0.4-0.2-0.7c0-0.5,0.2-0.8,0.6-1.1
				s0.9-0.4,1.5-0.4c0.6,0,1.2,0.1,1.8,0.4l-0.3,0.7c-0.6-0.2-1.1-0.3-1.5-0.3c-0.4,0-0.7,0.1-0.9,0.2s-0.3,0.3-0.3,0.5
				c0,0.1,0,0.3,0.1,0.4c0.1,0.1,0.2,0.2,0.4,0.3c0.2,0.1,0.5,0.2,1,0.4c0.7,0.2,1.1,0.5,1.4,0.7C245.7,40.5,245.8,40.8,245.8,41.2z
				"/>
		</g>
	</g>
</g>
</svg>
